<svg width="19" height="21" viewBox="0 0 19 21" fill="none" xmlns="http://www.w3.org/2000/svg">
<g clip-path="url(#clip0_61385:118)">
<path d="M9.0969 0.557526C4.07365 0.557526 0 5.12168 0 10.752C0 15.2552 2.60659 19.0756 6.22306 20.4248C6.67796 20.5187 6.844 20.2039 6.844 19.9336C6.844 19.6912 6.83604 19.0502 6.83149 18.1998C4.3011 18.8154 3.76659 16.8329 3.76659 16.8329C3.35376 15.655 2.75671 15.3415 2.75671 15.3415C1.92992 14.7094 2.81812 14.7221 2.81812 14.7221C3.73133 14.7945 4.21126 15.7731 4.21126 15.7731C5.02326 17.3304 6.34133 16.8811 6.85992 16.6196C6.9418 15.9609 7.17722 15.5116 7.43765 15.2565C5.41788 14.9988 3.29349 14.1243 3.29349 10.2189C3.29349 9.10579 3.64831 8.19576 4.23059 7.48245C4.1362 7.22479 3.82459 6.18783 4.31929 4.78533C4.31929 4.78533 5.08353 4.51118 6.82126 5.82991C7.54682 5.60399 8.32471 5.49103 9.09918 5.48722C9.87137 5.49229 10.6504 5.60399 11.3771 5.83118C13.1137 4.51245 13.8768 4.7866 13.8768 4.7866C14.3726 6.19037 14.061 7.22606 13.9678 7.48372C14.5512 8.19702 14.9026 9.10706 14.9026 10.2202C14.9026 14.1358 12.7759 14.9976 10.7493 15.2501C11.0757 15.5649 11.3669 16.1868 11.3669 17.1375C11.3669 18.5006 11.3555 19.5998 11.3555 19.9336C11.3555 20.2065 11.5193 20.5238 11.981 20.4235C15.5918 19.0731 18.1961 15.2539 18.1961 10.752C18.1961 5.12168 14.1224 0.557526 9.0969 0.557526Z" fill="#C4C4CC"/>
</g>
<defs>
<clipPath id="clip0_61385:118">
<rect width="18.1961" height="20.3077" fill="white" transform="translate(0 0.346161)"/>
</clipPath>
</defs>
</svg>
